<?xml version="1.0" encoding="UTF-8"?>
<svg width="200" height="200" viewBox="0 0 200 200" xmlns="http://www.w3.org/2000/svg">
  <!-- Background Circle -->
  <circle cx="100" cy="100" r="100" fill="#fd79a8"/>
  
  <!-- Hair -->
  <path d="M50 100 Q50 50, 100 50 Q150 50, 150 100 Q130 80, 100 90 Q70 80, 50 100" fill="#2d3436"/>
  
  <!-- Face -->
  <circle cx="100" cy="100" r="35" fill="#ffffff"/>
  
  <!-- Eyes -->
  <path d="M85 95 Q87 90, 90 95" stroke="#2d3436" stroke-width="2" fill="transparent"/>
  <path d="M110 95 Q113 90, 115 95" stroke="#2d3436" stroke-width="2" fill="transparent"/>
  
  <!-- Smile -->
  <path d="M90 110 Q100 115, 110 110" stroke="#2d3436" stroke-width="2" fill="transparent"/>
  
  <!-- Beard -->
  <path d="M85 115 Q100 130, 115 115 L115 125 Q100 140, 85 125 Z" fill="#2d3436"/>
  
  <!-- Body -->
  <path d="M75 135 L65 170 L135 170 L125 135 Q100 145, 75 135" fill="#ffeaa7"/>
  
  <!-- Tie -->
  <path d="M95 135 L100 170 L105 135" fill="none" stroke="#2d3436" stroke-width="3"/>
  <path d="M95 145 L105 145" stroke="#2d3436" stroke-width="2"/>
</svg>
