<?xml version="1.0" encoding="UTF-8" standalone="no"?>
<svg width="200" height="50" viewBox="0 0 200 50" fill="none" xmlns="http://www.w3.org/2000/svg">
  <path d="M30 10C18.954 10 10 18.954 10 30C10 41.046 18.954 50 30 50C41.046 50 50 41.046 50 30C50 18.954 41.046 10 30 10Z" fill="#6C5CE7"/>
  <path d="M30 15C21.716 15 15 21.716 15 30C15 38.284 21.716 45 30 45C38.284 45 45 38.284 45 30C45 21.716 38.284 15 30 15Z" fill="#A29BFE"/>
  <path d="M30 20C24.477 20 20 24.477 20 30C20 35.523 24.477 40 30 40C35.523 40 40 35.523 40 30C40 24.477 35.523 20 30 20Z" fill="#00CEC9"/>
  <path d="M30 25C27.239 25 25 27.239 25 30C25 32.761 27.239 35 30 35C32.761 35 35 32.761 35 30C35 27.239 32.761 25 30 25Z" fill="white"/>
  
  <path d="M65.336 35V15.8H72.472C74.152 15.8 75.544 16.104 76.648 16.712C77.768 17.32 78.608 18.152 79.168 19.208C79.728 20.248 80.008 21.432 80.008 22.76C80.008 24.088 79.728 25.28 79.168 26.336C78.608 27.376 77.768 28.2 76.648 28.808C75.544 29.416 74.152 29.72 72.472 29.72H68.248V35H65.336ZM68.248 27.224H72.28C73.608 27.224 74.624 26.888 75.328 26.216C76.032 25.528 76.384 24.52 76.384 23.192V22.328C76.384 21 76.032 20 75.328 19.328C74.624 18.64 73.608 18.296 72.28 18.296H68.248V27.224Z" fill="white"/>
  
  <path d="M91.4797 35.24C89.8797 35.24 88.4637 34.904 87.2317 34.232C86.0157 33.544 85.0637 32.6 84.3757 31.4C83.7037 30.184 83.3677 28.784 83.3677 27.2C83.3677 25.616 83.7037 24.224 84.3757 23.024C85.0637 21.808 86.0157 20.864 87.2317 20.192C88.4637 19.504 89.8797 19.16 91.4797 19.16C93.0797 19.16 94.4877 19.504 95.7037 20.192C96.9357 20.864 97.8877 21.808 98.5597 23.024C99.2477 24.224 99.5917 25.616 99.5917 27.2C99.5917 28.784 99.2477 30.184 98.5597 31.4C97.8877 32.6 96.9357 33.544 95.7037 34.232C94.4877 34.904 93.0797 35.24 91.4797 35.24ZM91.4797 32.72C92.4797 32.72 93.3517 32.504 94.0957 32.072C94.8397 31.624 95.4157 30.992 95.8237 30.176C96.2317 29.36 96.4357 28.368 96.4357 27.2C96.4357 26.032 96.2317 25.04 95.8237 24.224C95.4157 23.408 94.8397 22.784 94.0957 22.352C93.3517 21.904 92.4797 21.68 91.4797 21.68C90.4797 21.68 89.6077 21.904 88.8637 22.352C88.1197 22.784 87.5437 23.408 87.1357 24.224C86.7277 25.04 86.5237 26.032 86.5237 27.2C86.5237 28.368 86.7277 29.36 87.1357 30.176C87.5437 30.992 88.1197 31.624 88.8637 32.072C89.6077 32.504 90.4797 32.72 91.4797 32.72Z" fill="white"/>
  
  <path d="M111.87 35.24C110.27 35.24 108.854 34.904 107.622 34.232C106.406 33.544 105.454 32.6 104.766 31.4C104.094 30.184 103.758 28.784 103.758 27.2C103.758 25.616 104.094 24.224 104.766 23.024C105.454 21.808 106.406 20.864 107.622 20.192C108.854 19.504 110.27 19.16 111.87 19.16C113.47 19.16 114.878 19.504 116.094 20.192C117.326 20.864 118.278 21.808 118.95 23.024C119.638 24.224 119.982 25.616 119.982 27.2C119.982 28.784 119.638 30.184 118.95 31.4C118.278 32.6 117.326 33.544 116.094 34.232C114.878 34.904 113.47 35.24 111.87 35.24ZM111.87 32.72C112.87 32.72 113.742 32.504 114.486 32.072C115.23 31.624 115.806 30.992 116.214 30.176C116.622 29.36 116.826 28.368 116.826 27.2C116.826 26.032 116.622 25.04 116.214 24.224C115.806 23.408 115.23 22.784 114.486 22.352C113.742 21.904 112.87 21.68 111.87 21.68C110.87 21.68 109.998 21.904 109.254 22.352C108.51 22.784 107.934 23.408 107.526 24.224C107.118 25.04 106.914 26.032 106.914 27.2C106.914 28.368 107.118 29.36 107.526 30.176C107.934 30.992 108.51 31.624 109.254 32.072C109.998 32.504 110.87 32.72 111.87 32.72Z" fill="white"/>
  
  <path d="M123.261 35V19.4H126.173V22.28H126.413C126.701 21.32 127.229 20.584 127.997 20.072C128.781 19.544 129.709 19.28 130.781 19.28C131.069 19.28 131.373 19.296 131.693 19.328C132.013 19.36 132.269 19.4 132.461 19.448V22.28C132.301 22.216 132.029 22.152 131.645 22.088C131.277 22.024 130.893 21.992 130.493 21.992C129.653 21.992 128.901 22.176 128.237 22.544C127.589 22.896 127.077 23.392 126.701 24.032C126.341 24.672 126.161 25.416 126.161 26.264V35H123.261Z" fill="white"/>
  
  <path d="M144.403 19.4V21.92H134.803V19.4H144.403ZM137.523 15.56H140.423V30.08C140.423 30.72 140.531 31.2 140.747 31.52C140.979 31.824 141.267 32.032 141.611 32.144C141.971 32.24 142.347 32.288 142.739 32.288C143.027 32.288 143.267 32.272 143.459 32.24C143.651 32.208 143.803 32.184 143.915 32.168L144.475 34.76C144.299 34.824 144.043 34.888 143.707 34.952C143.371 35.032 142.947 35.072 142.435 35.072C141.611 35.072 140.827 34.912 140.083 34.592C139.339 34.272 138.739 33.776 138.283 33.104C137.827 32.432 137.603 31.584 137.603 30.56V15.56H137.523Z" fill="white"/>
  
  <path d="M146.336 35V19.4H149.248V35H146.336ZM147.8 16.84C147.16 16.84 146.616 16.632 146.168 16.216C145.736 15.8 145.52 15.296 145.52 14.704C145.52 14.112 145.736 13.608 146.168 13.192C146.616 12.776 147.16 12.568 147.8 12.568C148.44 12.568 148.976 12.776 149.408 13.192C149.856 13.608 150.08 14.112 150.08 14.704C150.08 15.296 149.856 15.8 149.408 16.216C148.976 16.632 148.44 16.84 147.8 16.84Z" fill="white"/>
  
  <path d="M162.291 35.24C160.691 35.24 159.275 34.904 158.043 34.232C156.827 33.544 155.875 32.6 155.187 31.4C154.515 30.184 154.179 28.784 154.179 27.2C154.179 25.616 154.515 24.224 155.187 23.024C155.875 21.808 156.827 20.864 158.043 20.192C159.275 19.504 160.691 19.16 162.291 19.16C163.891 19.16 165.299 19.504 166.515 20.192C167.747 20.864 168.699 21.808 169.371 23.024C170.059 24.224 170.403 25.616 170.403 27.2C170.403 28.784 170.059 30.184 169.371 31.4C168.699 32.6 167.747 33.544 166.515 34.232C165.299 34.904 163.891 35.24 162.291 35.24ZM162.291 32.72C163.291 32.72 164.163 32.504 164.907 32.072C165.651 31.624 166.227 30.992 166.635 30.176C167.043 29.36 167.247 28.368 167.247 27.2C167.247 26.032 167.043 25.04 166.635 24.224C166.227 23.408 165.651 22.784 164.907 22.352C164.163 21.904 163.291 21.68 162.291 21.68C161.291 21.68 160.419 21.904 159.675 22.352C158.931 22.784 158.355 23.408 157.947 24.224C157.539 25.04 157.335 26.032 157.335 27.2C157.335 28.368 157.539 29.36 157.947 30.176C158.355 30.992 158.931 31.624 159.675 32.072C160.419 32.504 161.291 32.72 162.291 32.72Z" fill="white"/>
  
  <path d="M183.682 35.24C182.082 35.24 180.666 34.904 179.434 34.232C178.218 33.544 177.266 32.6 176.578 31.4C175.906 30.184 175.57 28.784 175.57 27.2C175.57 25.616 175.906 24.224 176.578 23.024C177.266 21.808 178.218 20.864 179.434 20.192C180.666 19.504 182.082 19.16 183.682 19.16C185.282 19.16 186.69 19.504 187.906 20.192C189.138 20.864 190.09 21.808 190.762 23.024C191.45 24.224 191.794 25.616 191.794 27.2C191.794 28.784 191.45 30.184 190.762 31.4C190.09 32.6 189.138 33.544 187.906 34.232C186.69 34.904 185.282 35.24 183.682 35.24ZM183.682 32.72C184.682 32.72 185.554 32.504 186.298 32.072C187.042 31.624 187.618 30.992 188.026 30.176C188.434 29.36 188.638 28.368 188.638 27.2C188.638 26.032 188.434 25.04 188.026 24.224C187.618 23.408 187.042 22.784 186.298 22.352C185.554 21.904 184.682 21.68 183.682 21.68C182.682 21.68 181.81 21.904 181.066 22.352C180.322 22.784 179.746 23.408 179.338 24.224C178.93 25.04 178.726 26.032 178.726 27.2C178.726 28.368 178.93 29.36 179.338 30.176C179.746 30.992 180.322 31.624 181.066 32.072C181.81 32.504 182.682 32.72 183.682 32.72Z" fill="white"/>
</svg>
